<?xml version="1.0" encoding="utf-8"?>
<!-- Generator: Adobe Illustrator 16.0.0, SVG Export Plug-In . SVG Version: 6.00 Build 0)  -->
<!DOCTYPE svg PUBLIC "-//W3C//DTD SVG 1.1//EN" "http://www.w3.org/Graphics/SVG/1.1/DTD/svg11.dtd">
<svg version="1.1" id="Layer_1" xmlns="http://www.w3.org/2000/svg" xmlns:xlink="http://www.w3.org/1999/xlink" x="0px" y="0px"
	 width="180px" height="180px" viewBox="0 0 180 180" enable-background="new 0 0 180 180" xml:space="preserve">
<g>
	<path fill="#F05250" d="M90.002,170C45.889,170,10,134.113,10,90c0-44.112,35.889-80,80.002-80C134.113,10,170,45.889,170,90
		C170,134.113,134.113,170,90.002,170z M90.002,15.252c-41.219,0-74.75,33.532-74.75,74.749c0,41.216,33.531,74.748,74.75,74.748
		c41.215,0,74.745-33.531,74.745-74.748C164.747,48.784,131.217,15.252,90.002,15.252z"/>
	<polygon fill="#F05250" points="72.373,113.514 66.186,105.08 59.896,113.498 53.449,105.018 47.418,112.951 36.637,104.531 
		39.33,101.082 46.618,106.772 53.449,97.786 59.866,106.226 66.218,97.725 72.444,106.212 78.838,97.844 87.324,108.498 
		83.9,111.226 78.91,104.96 	"/>
	<path fill="#F05250" d="M102.93,127.766H46.221l56.468-88.103L102.93,127.766z M54.225,123.389h44.316l-0.188-68.852
		L54.225,123.389z"/>
	<g>
		<polygon fill="#F05250" points="127.152,126.535 122.775,126.484 123.682,49.971 101.542,76.041 98.206,73.208 124.272,42.512 
			128.13,43.954 		"/>
		
			<rect x="110.84" y="63.86" transform="matrix(0.7002 0.714 -0.714 0.7002 91.74 -56.4074)" fill="#F05250" width="4.377" height="34.325"/>
	</g>
	<path fill="#F05250" d="M66.416,63.319c-4.744,0-8.604-3.86-8.604-8.604s3.859-8.604,8.604-8.604s8.605,3.86,8.605,8.604
		S71.16,63.319,66.416,63.319z M66.416,50.488c-2.33,0-4.227,1.896-4.227,4.227c0,2.331,1.896,4.228,4.227,4.228
		c2.332,0,4.229-1.896,4.229-4.228C70.645,52.385,68.748,50.488,66.416,50.488z"/>
</g>
</svg>
