<?xml version="1.0" encoding="utf-8"?>
<!-- Generator: Adobe Illustrator 16.0.0, SVG Export Plug-In . SVG Version: 6.00 Build 0)  -->
<!DOCTYPE svg PUBLIC "-//W3C//DTD SVG 1.1//EN" "http://www.w3.org/Graphics/SVG/1.1/DTD/svg11.dtd">
<svg version="1.1" id="Layer_1" xmlns="http://www.w3.org/2000/svg" xmlns:xlink="http://www.w3.org/1999/xlink" x="0px" y="0px"
	 width="180px" height="180px" viewBox="0 0 180 180" enable-background="new 0 0 180 180" xml:space="preserve">
<g>
	<path fill="#F05250" d="M138.497,118.149H81.791l0.239-88.097l5.217,8.127L138.497,118.149z M86.18,113.772h44.314L86.367,44.918
		L86.18,113.772z"/>
	<g>
		<polygon fill="#F05250" points="85.86,141.88 82.126,140.32 82.542,43.271 86.918,43.29 86.526,135.036 108.722,112.918 
			111.811,116.018 		"/>
		
			<rect x="94.79" y="90.786" transform="matrix(0.7001 0.714 -0.714 0.7001 106.1638 -36.8731)" fill="#F05250" width="4.376" height="34.325"/>
	</g>
	<polygon fill="#F05250" points="63.788,92.229 56.455,82.636 50.272,90.398 47.534,88.217 56.511,76.944 63.729,86.387 
		70.727,76.848 77.862,86.398 85.085,76.897 92.321,86.415 98.166,78.73 100.953,80.85 92.321,92.2 85.085,82.683 77.838,92.218 
		70.752,82.732 	"/>
	<path fill="#F05250" d="M64.858,122.183c-4.744,0-8.603-3.86-8.603-8.604s3.858-8.604,8.603-8.604c4.746,0,8.605,3.859,8.605,8.604
		S69.604,122.183,64.858,122.183z M64.858,109.352c-2.33,0-4.226,1.896-4.226,4.227s1.896,4.228,4.226,4.228
		c2.332,0,4.228-1.897,4.228-4.228S67.19,109.352,64.858,109.352z"/>
	<path fill="#F05250" d="M90,170c-44.112,0-80-35.888-80-79.999C10,45.888,45.888,10,90,10c44.111,0,80,35.888,80,80.001
		C170,134.112,134.111,170,90,170z M90,15.252c-41.215,0-74.748,33.533-74.748,74.749c0,41.216,33.533,74.747,74.748,74.747
		c41.216,0,74.748-33.531,74.748-74.747C164.748,48.785,131.216,15.252,90,15.252z"/>
</g>
</svg>
