<?xml version="1.0" encoding="utf-8"?>
<!-- Generator: Adobe Illustrator 16.0.0, SVG Export Plug-In . SVG Version: 6.00 Build 0)  -->
<!DOCTYPE svg PUBLIC "-//W3C//DTD SVG 1.1//EN" "http://www.w3.org/Graphics/SVG/1.1/DTD/svg11.dtd">
<svg version="1.1" id="Layer_1" xmlns="http://www.w3.org/2000/svg" xmlns:xlink="http://www.w3.org/1999/xlink" x="0px" y="0px"
	 width="180px" height="180px" viewBox="0 0 180 180" enable-background="new 0 0 180 180" xml:space="preserve">
<g>
	<circle fill="none" stroke="#EF5250" stroke-width="4.9857" stroke-miterlimit="10" cx="90" cy="90.001" r="79.999"/>
	<polygon fill="none" stroke="#EF5250" stroke-width="4.9857" stroke-miterlimit="10" points="117.061,91.232 117.061,40.905 
		36.736,91.222 116.315,91.222 	"/>
	<g>
		<polyline fill="none" stroke="#EF5250" stroke-width="4.9857" stroke-miterlimit="10" points="56.576,91.207 141.776,91.515 
			116.389,66.007 		"/>
		
			<line fill="none" stroke="#EF5250" stroke-width="4.9857" stroke-miterlimit="10" x1="92.533" y1="66.181" x2="118.31" y2="92.001"/>
	</g>
	<polyline fill="none" stroke="#EF5250" stroke-width="4.1547" stroke-miterlimit="10" points="75.243,75.962 86.708,83.799 
		76.866,91.321 86.612,98.104 76.866,105.892 86.708,112.405 76.866,120.119 88.262,127.993 	"/>
	<path fill="none" stroke="#EF5250" stroke-width="4.9857" stroke-miterlimit="10" d="M116.964,110.043
		c4.594,0,8.318,3.722,8.318,8.318c0,4.592-3.725,8.316-8.318,8.316s-8.318-3.725-8.318-8.316
		C108.646,113.765,112.37,110.043,116.964,110.043z"/>
</g>
</svg>
