<?xml version="1.0" encoding="utf-8"?>
<!-- Generator: Adobe Illustrator 16.0.0, SVG Export Plug-In . SVG Version: 6.00 Build 0)  -->
<!DOCTYPE svg PUBLIC "-//W3C//DTD SVG 1.1//EN" "http://www.w3.org/Graphics/SVG/1.1/DTD/svg11.dtd">
<svg version="1.1" id="Layer_1" xmlns="http://www.w3.org/2000/svg" xmlns:xlink="http://www.w3.org/1999/xlink" x="0px" y="0px"
	 width="180px" height="180px" viewBox="0 0 180 180" enable-background="new 0 0 180 180" xml:space="preserve">
<g>
	<path fill="#F05250" d="M68.897,139.135l-0.241-88.112h56.707L68.897,139.135z M73.045,55.399l0.188,68.852l44.126-68.852H73.045z"
		/>
	<path fill="#F05250" d="M88.663,77.849c-4.744,0-8.604-3.86-8.604-8.604s3.86-8.604,8.604-8.604s8.604,3.86,8.604,8.604
		S93.407,77.849,88.663,77.849z M88.663,65.017c-2.331,0-4.228,1.896-4.228,4.228s1.896,4.228,4.228,4.228s4.228-1.896,4.228-4.228
		S90.994,65.017,88.663,65.017z"/>
	<g>
		<polygon fill="#F05250" points="89.378,137.013 89.37,132.636 120.668,132.579 68.905,81.77 71.972,78.646 127.544,133.196 
			126.016,136.946 		"/>
		
			<rect x="91.973" y="103.653" transform="matrix(0.01 0.9999 -0.9999 0.01 214.0251 25.4461)" fill="#F05250" width="4.377" height="34.325"/>
	</g>
	<polygon fill="#F05250" points="48.855,100.102 46.206,96.617 52.375,91.927 43.915,85.495 52.354,79.077 43.853,72.727 
		52.34,66.5 43.973,60.105 54.628,51.622 57.354,55.045 51.088,60.034 59.642,66.571 51.208,72.759 59.627,79.046 51.146,85.495 
		59.606,91.927 	"/>
	<path fill="#F05250" d="M90,170c-44.113,0-80-35.889-80-80.001C10,45.888,45.887,10,90,10c44.111,0,80,35.888,80,79.999
		C170,134.111,134.111,170,90,170z M90,15.252c-41.217,0-74.748,33.531-74.748,74.747S48.783,164.747,90,164.747
		c41.216,0,74.748-33.532,74.748-74.748S131.216,15.252,90,15.252z"/>
</g>
</svg>
