<?xml version="1.0" encoding="utf-8"?>
<!-- Generator: Adobe Illustrator 16.0.0, SVG Export Plug-In . SVG Version: 6.00 Build 0)  -->
<!DOCTYPE svg PUBLIC "-//W3C//DTD SVG 1.1//EN" "http://www.w3.org/Graphics/SVG/1.1/DTD/svg11.dtd">
<svg version="1.1" id="Layer_1" xmlns="http://www.w3.org/2000/svg" xmlns:xlink="http://www.w3.org/1999/xlink" x="0px" y="0px"
	 width="180px" height="180px" viewBox="0 0 180 180" enable-background="new 0 0 180 180" xml:space="preserve">
<g>
	<path fill="#F05250" d="M90.001,170C45.889,170,10,134.111,10,89.999C10,45.888,45.889,10,90.001,10S170,45.888,170,89.999
		C170,134.111,134.113,170,90.001,170z M90.001,15.252c-41.217,0-74.749,33.532-74.749,74.747c0,41.217,33.531,74.748,74.749,74.748
		c41.216,0,74.747-33.531,74.747-74.748C164.748,48.784,131.217,15.252,90.001,15.252z"/>
	<path fill="#F05250" d="M48.514,105.876V49.171l88.11,56.464L48.514,105.876z M52.891,57.174v44.313l68.853-0.188L52.891,57.174z"
		/>
	<g>
		<polygon fill="#F05250" points="71.359,139.729 67.61,138.198 67.544,101.562 71.921,101.553 71.978,132.855 127.57,76.307 
			130.691,79.375 		"/>
		
			<rect x="66.576" y="104.155" transform="matrix(0.01 1 -1 0.01 189.2435 21.5466)" fill="#F05250" width="34.329" height="4.377"/>
	</g>
	<polygon fill="#F05250" points="103.008,70.655 96.78,62.167 90.385,70.535 81.9,59.878 85.325,57.153 90.314,63.419 
		96.853,54.865 103.039,63.299 109.327,54.879 115.774,63.361 121.808,55.426 132.588,63.846 129.894,67.295 122.607,61.605 
		115.774,70.593 109.357,62.152 	"/>
	<path fill="#F05250" d="M113.963,132.098c-5.51,0-9.992-4.484-9.992-9.996c0-5.51,4.482-9.992,9.992-9.992
		c5.512,0,9.996,4.482,9.996,9.992C123.959,127.613,119.475,132.098,113.963,132.098z M113.963,116.486
		c-3.097,0-5.615,2.519-5.615,5.615c0,3.098,2.519,5.619,5.615,5.619c3.099,0,5.619-2.521,5.619-5.619
		C119.582,119.005,117.062,116.486,113.963,116.486z"/>
</g>
</svg>
