<?xml version="1.0" encoding="utf-8"?>
<!-- Generator: Adobe Illustrator 16.0.0, SVG Export Plug-In . SVG Version: 6.00 Build 0)  -->
<!DOCTYPE svg PUBLIC "-//W3C//DTD SVG 1.1//EN" "http://www.w3.org/Graphics/SVG/1.1/DTD/svg11.dtd">
<svg version="1.1" id="Layer_1" xmlns="http://www.w3.org/2000/svg" xmlns:xlink="http://www.w3.org/1999/xlink" x="0px" y="0px"
	 width="180px" height="180px" viewBox="0 0 180 180" enable-background="new 0 0 180 180" xml:space="preserve">
<g>
	<path fill="#F05250" d="M98.997,126.824H42.292L98.76,38.728L98.997,126.824z M50.295,122.448h44.313l-0.186-68.857L50.295,122.448
		z"/>
	<g>
		<polygon fill="#F05250" points="95.804,126.824 96.142,47.412 98.813,45.446 124.766,71.307 121.676,74.407 99.505,52.314 
			100.132,126.824 		"/>
		
			<rect x="92.768" y="73.781" transform="matrix(0.7142 0.7 -0.7 0.7142 84.6013 -55.2344)" fill="#F05250" width="34.325" height="4.378"/>
	</g>
	<polygon fill="#F05250" points="97.911,108.545 91.688,100.062 85.279,108.449 77.145,98.231 79.883,96.051 85.223,102.756 
		91.746,94.221 97.938,102.66 104.23,94.231 110.675,102.71 117.107,94.248 124.935,104.543 122.147,106.662 117.107,100.034 
		110.675,108.495 104.256,100.051 	"/>
	<path fill="#F05250" d="M69.531,62.391c-4.745,0-8.604-3.859-8.604-8.604s3.858-8.604,8.604-8.604c4.744,0,8.604,3.86,8.604,8.604
		S74.275,62.391,69.531,62.391z M69.531,49.56c-2.331,0-4.227,1.896-4.227,4.228c0,2.33,1.896,4.227,4.227,4.227
		s4.228-1.896,4.228-4.227C73.759,51.456,71.862,49.56,69.531,49.56z"/>
	<path fill="#F05250" d="M90.001,170C45.888,170,10,134.113,10,90.001S45.888,10,90.001,10C134.112,10,170,45.889,170,90.001
		S134.112,170,90.001,170z M90.001,15.252c-41.217,0-74.749,33.532-74.749,74.749c0,41.216,33.532,74.747,74.749,74.747
		c41.215,0,74.747-33.531,74.747-74.747C164.748,48.784,131.216,15.252,90.001,15.252z"/>
</g>
</svg>
