<?xml version="1.0" encoding="utf-8"?>
<!-- Generator: Adobe Illustrator 16.0.0, SVG Export Plug-In . SVG Version: 6.00 Build 0)  -->
<!DOCTYPE svg PUBLIC "-//W3C//DTD SVG 1.1//EN" "http://www.w3.org/Graphics/SVG/1.1/DTD/svg11.dtd">
<svg version="1.1" id="Layer_1" xmlns="http://www.w3.org/2000/svg" xmlns:xlink="http://www.w3.org/1999/xlink" x="0px" y="0px"
	 width="180px" height="180px" viewBox="0 0 180 180" enable-background="new 0 0 180 180" xml:space="preserve">
<g>
	<path fill="#F05250" d="M10,90c0,44.112,35.888,80,80,80s80-35.889,80-80c0-44.111-35.888-80-80-80S10,45.889,10,90z M165.155,90
		c0,41.442-33.715,75.157-75.155,75.157S14.845,131.441,14.845,90c0-41.441,33.715-75.154,75.155-75.154S165.155,48.559,165.155,90z
		"/>
	<path fill="#F05250" d="M113.974,62.777c0,5.783,4.705,10.49,10.489,10.49s10.489-4.707,10.489-10.49s-4.705-10.488-10.489-10.488
		S113.974,56.994,113.974,62.777z M130.107,62.777c0,3.111-2.532,5.645-5.645,5.645s-5.645-2.533-5.645-5.645
		s2.532-5.643,5.645-5.643S130.107,59.666,130.107,62.777z"/>
	<polygon fill="#F05250" points="62.438,50.928 52.915,58.209 62.414,64.822 52.914,72.414 62.435,78.717 52.936,86.16 
		66.242,95.352 68.537,92.031 59.743,85.955 69.331,78.439 59.765,72.107 69.161,64.6 59.764,58.057 69.326,50.746 55.902,41.57 
		53.623,44.902 	"/>
	<path fill="#F05250" d="M79.027,48.523l-3.426,3.426l14.032,14.029l-40.709,64.984h55.644l-0.011-19.67l37.157-0.086
		l-37.179-37.178l-0.02-31.809L92.271,61.768L79.027,48.523z M57.676,126.119l35.473-56.625l6.523,6.525v13.949L84.74,89.981
		l0.005,4.845l14.927-0.012v31.305H57.676z M104.555,106.449l-0.007-11.641l13.902-0.012l11.594,11.592L104.555,106.449z
		 M113.61,89.957l-9.065,0.008l-0.005-9.08L113.61,89.957z M99.672,59.082v10.084l-3.885-3.883L99.672,59.082z"/>
</g>
</svg>
